<?xml version="1.0" encoding="UTF-8" standalone="no"?>
<svg
   xmlns:dc="http://purl.org/dc/elements/1.1/"
   xmlns:cc="http://creativecommons.org/ns#"
   xmlns:rdf="http://www.w3.org/1999/02/22-rdf-syntax-ns#"
   xmlns:svg="http://www.w3.org/2000/svg"
   xmlns="http://www.w3.org/2000/svg"
   xmlns:sodipodi="http://sodipodi.sourceforge.net/DTD/sodipodi-0.dtd"
   xmlns:inkscape="http://www.inkscape.org/namespaces/inkscape"
   width="64"
   height="64"
   viewBox="0 0 16.933333 16.933334"
   version="1.1"
   id="svg8"
   inkscape:version="1.0.1 (3bc2e813f5, 2020-09-07)"
   sodipodi:docname="editor_rest_icon.svg">
  <defs
     id="defs2" />
  <sodipodi:namedview
     id="base"
     pagecolor="#272736"
     bordercolor="#666666"
     borderopacity="1.0"
     inkscape:pageopacity="0"
     inkscape:pageshadow="2"
     inkscape:zoom="7.9195959"
     inkscape:cx="1.1781443"
     inkscape:cy="9.7669778"
     inkscape:document-units="px"
     inkscape:current-layer="layer1"
     inkscape:document-rotation="0"
     showgrid="false"
     units="px"
     inkscape:window-width="1920"
     inkscape:window-height="1017"
     inkscape:window-x="-8"
     inkscape:window-y="-8"
     inkscape:window-maximized="1"
     showborder="true" />
  <metadata
     id="metadata5">
    <rdf:RDF>
      <cc:Work
         rdf:about="">
        <dc:format>image/svg+xml</dc:format>
        <dc:type
           rdf:resource="http://purl.org/dc/dcmitype/StillImage" />
        <dc:title></dc:title>
      </cc:Work>
    </rdf:RDF>
  </metadata>
  <g
     inkscape:label="Layer 1"
     inkscape:groupmode="layer"
     id="layer1">
    <path
       style="fill:#97a8e0;fill-opacity:1;stroke:none;stroke-width:0.0643111px;stroke-linecap:butt;stroke-linejoin:miter;stroke-opacity:1"
       d="M 8.5787602,16.410507 C 7.5456159,15.744404 6.8171087,15.206028 6.19006,14.36633 5.6281934,13.61392 5.196061,12.720151 5.0416462,11.793884 4.9430534,11.202471 4.896142,10.517802 5.2024245,10.002357 5.4280431,9.6226604 5.868996,9.3385053 6.3049013,9.2673748 7.0564244,9.1447376 7.8525333,9.3895294 8.509856,9.8645486 7.0180174,8.0087284 7.0073007,8.0953834 6.5329506,7.2496264 6.3137727,6.8588322 5.9847274,6.3486444 6.339353,6.0747843 7.8680333,4.8942515 9.491595,4.1946599 9.491595,4.1946599 9.0709309,3.4088635 7.3404691,1.4867671 8.2582741,0.73038974 8.4342339,0.59412213 8.8348885,0.4525311 9.0151585,0.63130407 10.659856,2.6711406 11.434425,3.8058662 12.768051,5.8645796 c 0,0 -1.260684,0.3721043 -1.722816,0.8062012 C 10.464768,7.2160331 9.9171115,7.9710274 9.8993254,8.7672214 9.8766234,9.7834745 10.810791,11.375297 11.241,11.50574 c 0.114841,0.02298 -0.986212,-0.101255 -1.4699701,-0.02298 -0.4282433,0.06929 -0.8982246,0.148361 -1.228465,0.429671 -0.2357034,0.200779 -0.4218051,0.524983 -0.4421837,0.816878 -0.1076417,1.295297 0.050541,1.925147 0.478379,3.68119 0,0 3e-6,10e-7 0,10e-7 z"
       id="path907"
       sodipodi:nodetypes="caaaacssccccaacaacccc" />
  </g>
  <inkscape:templateinfo>
    <inkscape:name>pear</inkscape:name>
    <inkscape:date>2020-11-14</inkscape:date>
  </inkscape:templateinfo>
</svg>
